{
    "asset" : {
        "generator" : "Khronos glTF Blender I/O v1.3.43",
        "version" : "2.0"
    },
    "scene" : 0,
    "scenes" : [
        {
            "name" : "Scene",
            "nodes" : [
                0
            ]
        }
    ],
    "nodes" : [
        {
            "mesh" : 0,
            "name" : "Text",
            "scale" : [
                7.713321208953857,
                7.713321208953857,
                7.713321208953857
            ]
        }
    ],
    "materials" : [
        {
            "doubleSided" : true,
            "emissiveFactor" : [
                0,
                0,
                0
            ],
            "name" : "Material.001",
            "pbrMetallicRoughness" : {
                "baseColorFactor" : [
                    1,
                    0.2445201426744461,
                    0,
                    1
                ],
                "metallicFactor" : 0.5035461187362671,
                "roughnessFactor" : 0
            }
        },
        {
            "doubleSided" : true,
            "emissiveFactor" : [
                0,
                0,
                0
            ],
            "name" : "Material.002",
            "pbrMetallicRoughness" : {
                "baseColorFactor" : [
                    0.36850202083587646,
                    1,
                    0.8070195913314819,
                    1
                ],
                "metallicFactor" : 0.5106382966041565,
                "roughnessFactor" : 0
            }
        }
    ],
    "meshes" : [
        {
            "name" : "Curve",
            "primitives" : [
                {
                    "attributes" : {
                        "POSITION" : 0,
                        "NORMAL" : 1,
                        "TEXCOORD_0" : 2
                    },
                    "indices" : 3,
                    "material" : 0
                },
                {
                    "attributes" : {
                        "POSITION" : 4,
                        "NORMAL" : 5,
                        "TEXCOORD_0" : 6
                    },
                    "indices" : 7,
                    "material" : 1
                }
            ]
        }
    ],
    "accessors" : [
        {
            "bufferView" : 0,
            "componentType" : 5126,
            "count" : 2641,
            "max" : [
                1.6040846109390259,
                0.5563461780548096,
                0.15530739724636078
            ],
            "min" : [
                -1.5319700241088867,
                0.0014380812644958496,
                -0.14469264447689056
            ],
            "type" : "VEC3"
        },
        {
            "bufferView" : 1,
            "componentType" : 5126,
            "count" : 2641,
            "type" : "VEC3"
        },
        {
            "bufferView" : 2,
            "componentType" : 5126,
            "count" : 2641,
            "type" : "VEC2"
        },
        {
            "bufferView" : 3,
            "componentType" : 5123,
            "count" : 2868,
            "type" : "SCALAR"
        },
        {
            "bufferView" : 4,
            "componentType" : 5126,
            "count" : 1920,
            "max" : [
                1.6040846109390259,
                0.5563461780548096,
                0.15530739724636078
            ],
            "min" : [
                -1.5319700241088867,
                0.0014380812644958496,
                -0.14469264447689056
            ],
            "type" : "VEC3"
        },
        {
            "bufferView" : 5,
            "componentType" : 5126,
            "count" : 1920,
            "type" : "VEC3"
        },
        {
            "bufferView" : 6,
            "componentType" : 5126,
            "count" : 1920,
            "type" : "VEC2"
        },
        {
            "bufferView" : 7,
            "componentType" : 5123,
            "count" : 2880,
            "type" : "SCALAR"
        }
    ],
    "bufferViews" : [
        {
            "buffer" : 0,
            "byteLength" : 31692,
            "byteOffset" : 0
        },
        {
            "buffer" : 0,
            "byteLength" : 31692,
            "byteOffset" : 31692
        },
        {
            "buffer" : 0,
            "byteLength" : 21128,
            "byteOffset" : 63384
        },
        {
            "buffer" : 0,
            "byteLength" : 5736,
            "byteOffset" : 84512
        },
        {
            "buffer" : 0,
            "byteLength" : 23040,
            "byteOffset" : 90248
        },
        {
            "buffer" : 0,
            "byteLength" : 23040,
            "byteOffset" : 113288
        },
        {
            "buffer" : 0,
            "byteLength" : 15360,
            "byteOffset" : 136328
        },
        {
            "buffer" : 0,
            "byteLength" : 5760,
            "byteOffset" : 151688
        }
    ],
    "buffers" : [
        {
            "byteLength" : 157448,
            "uri" : "data:application/octet-stream;base64,"
        }
    ]
}
